<?xml version="1.0" encoding="UTF-8"?>
<svg version="1.1" xmlns="http://www.w3.org/2000/svg" width="129" height="155">
<path d="M0 0 C7.59 0 15.18 0 23 0 C23.495 6.435 23.495 6.435 24 13 C25.5675 13.45375 27.135 13.9075 28.75 14.375 C32.02896392 15.32417377 34.99049877 16.38274466 38 18 C38.59167969 17.4946875 39.18335937 16.989375 39.79296875 16.46875 C40.97826172 15.49421875 40.97826172 15.49421875 42.1875 14.5 C42.96480469 13.8503125 43.74210937 13.200625 44.54296875 12.53125 C47.48539051 10.69749908 48.60655553 10.24874046 52 11 C54.33605565 12.83777527 56.26942113 14.56994681 58.3125 16.6875 C58.86228516 17.21794922 59.41207031 17.74839844 59.97851562 18.29492188 C62.26698451 20.61181895 63.86141004 22.37398823 64.57421875 25.59375 C63.83879084 28.67554313 62.52586795 30.38869371 60.5 32.8125 C59.8503125 33.60269531 59.200625 34.39289062 58.53125 35.20703125 C58.0259375 35.79871094 57.520625 36.39039063 57 37 C57.3609375 37.77085938 57.721875 38.54171875 58.09375 39.3359375 C58.78984375 40.84027344 58.78984375 40.84027344 59.5 42.375 C60.19609375 43.87160156 60.19609375 43.87160156 60.90625 45.3984375 C62 48 62 48 62 50 C63.794375 50.185625 63.794375 50.185625 65.625 50.375 C74.47540568 51.47540568 74.47540568 51.47540568 77 54 C77.24966567 57.1382345 77.18521791 60.29049613 77.1875 63.4375 C77.19974609 64.32244141 77.21199219 65.20738281 77.22460938 66.11914062 C77.22654297 66.96541016 77.22847656 67.81167969 77.23046875 68.68359375 C77.23457764 69.46275146 77.23868652 70.24190918 77.24291992 71.04467773 C77 73 77 73 75 75 C72.80708918 75.45662153 70.59414111 75.820412 68.375 76.125 C67.18648438 76.29257813 65.99796875 76.46015625 64.7734375 76.6328125 C63.85820313 76.75398438 62.94296875 76.87515625 62 77 C61.516941 78.39449109 61.03874483 79.79066707 60.5625 81.1875 C60.29566406 81.96480469 60.02882813 82.74210937 59.75390625 83.54296875 C59.50511719 84.35378906 59.25632812 85.16460937 59 86 C58.72929688 86.82113281 58.45859375 87.64226562 58.1796875 88.48828125 C57.86828559 92.84113836 60.97825628 95.2931645 63.62890625 98.5 C65 101 65 101 64.45703125 103.58984375 C62.91371704 106.14272543 61.43252814 107.6860007 59.125 109.5625 C56.80309639 111.47786092 54.77035746 113.25515838 52.75 115.5 C52.1725 115.995 51.595 116.49 51 117 C47.83926364 116.58687471 45.86508364 115.36265277 43.375 113.4375 C40.96704996 111.43629893 40.96704996 111.43629893 38 111 C37.79375 111.639375 37.5875 112.27875 37.375 112.9375 C36 115 36 115 32.875 115.75 C31.92625 115.8325 30.9775 115.915 30 116 C29.30482308 105.05096344 33.3467482 98.81664522 39.5 90.125 C47.0195964 79.41433515 50.51880711 70.36550253 49 57 C47.26725883 49.92758708 44.44718548 43.44718548 39.25 38.25 C38.8375 37.8375 38.425 37.425 38 37 C38 36.34 38 35.68 38 35 C37.46503906 34.73316406 36.93007812 34.46632812 36.37890625 34.19140625 C34.6138536 33.30743079 32.85120029 32.41866109 31.08984375 31.52734375 C30.04957031 31.00269531 29.00929688 30.47804688 27.9375 29.9375 C26.89464844 29.41027344 25.85179688 28.88304688 24.77734375 28.33984375 C17.39217884 24.77709893 8.00801592 24.90325773 0.0390625 26.6484375 C-10.89274871 30.68320694 -19.14097095 38.72045543 -24.12890625 49.14453125 C-26.26132621 54.07692011 -26.69580071 58.47919081 -26.625 63.8125 C-26.615896 64.6890625 -26.60679199 65.565625 -26.59741211 66.46875 C-26.17339331 78.46084303 -20.20399805 85.84913489 -13.05859375 95.04296875 C-8.95289985 100.94052147 -6.21251422 107.71575653 -7 115 C-7.99 115.495 -7.99 115.495 -9 116 C-13.70491803 113.59016393 -13.70491803 113.59016393 -15 111 C-18.07210269 112.05329235 -20.06696084 113.0571617 -22.5625 115.1875 C-25 117 -25 117 -26.91796875 116.796875 C-29.30511608 115.88322011 -30.82864003 114.74163724 -32.75 113.0625 C-33.36359375 112.53785156 -33.9771875 112.01320313 -34.609375 111.47265625 C-36 110 -36 110 -36 108 C-36.66 108 -37.32 108 -38 108 C-39.38232443 106.37373596 -40.71937515 104.7074998 -42 103 C-40.63968068 98.91904203 -38.61869588 96.03069103 -35.92578125 92.74609375 C-34.80089439 91.03087013 -34.80089439 91.03087013 -35.2578125 89.0078125 C-35.95451895 87.12303821 -36.75539283 85.27770434 -37.5625 83.4375 C-39 80 -39 80 -39 77 C-43.29 76.34 -47.58 75.68 -52 75 C-52 67.41 -52 59.82 -52 52 C-43 49.75 -43 49.75 -39 50 C-38.5196682 48.41701974 -38.04078388 46.83360022 -37.5625 45.25 C-37.29566406 44.36828125 -37.02882813 43.4865625 -36.75390625 42.578125 C-36.50511719 41.72734375 -36.25632812 40.8765625 -36 40 C-35.731875 39.34 -35.46375 38.68 -35.1875 38 C-34.88946657 34.8209767 -36.57112609 33.23849855 -38.4375 30.75 C-39.09621094 29.85796875 -39.75492188 28.9659375 -40.43359375 28.046875 C-40.95050781 27.37140625 -41.46742187 26.6959375 -42 26 C-40.58397787 22.85093585 -38.86264918 20.50476328 -36.5625 17.9375 C-35.96566406 17.26589844 -35.36882813 16.59429688 -34.75390625 15.90234375 C-33.88572266 14.96068359 -33.88572266 14.96068359 -33 14 C-32.23042969 13.15501953 -32.23042969 13.15501953 -31.4453125 12.29296875 C-30 11 -30 11 -27.3125 10.375 C-22.32743756 11.31557782 -19.52017659 14.49769233 -16 18 C-14.32598903 17.35199575 -12.66194738 16.67834587 -11 16 C-10.25234375 15.80148437 -9.5046875 15.60296875 -8.734375 15.3984375 C-6.0420571 14.53863275 -4.18986898 13.80598756 -2 12 C-0.56731935 7.89881494 -0.33402752 4.39007603 0 0 Z " fill="#0BAACB" transform="translate(52,0)"/>
<path d="M0 0 C-0.55159721 3.37384703 -1.13301912 6.7399133 -1.75390625 10.1015625 C-5.16014472 26.26254297 -5.16014472 26.26254297 -2 42 C1.68215893 43.84107946 6.24191774 43.415029 10.32226562 43.60546875 C15.89926145 43.89926145 15.89926145 43.89926145 17 45 C16.78045571 50.37883508 15.31017163 53.61043963 12.25390625 58.0078125 C9.17724145 62.89597152 8.48873465 67.68965819 7.875 73.3125 C7.58625 75.849375 7.2975 78.38625 7 81 C1.06 81.33 -4.88 81.66 -11 82 C-11.65104167 79.94921875 -12.30208333 77.8984375 -12.953125 75.84765625 C-15.76572631 68.19696089 -19.24185807 61.8411776 -24.125 55.3125 C-31.27993748 45.72968805 -33.70961034 37.03741027 -32 25 C-29.10313509 15.85580364 -23.63089127 8.65045727 -15.4375 3.6875 C-10.09418378 1.06441749 -5.98723744 -0.28510654 0 0 Z " fill="#0AAACB" transform="translate(63,31)"/>
<path d="M0 0 C0.85570084 -0.00570007 1.71140167 -0.01140015 2.59303284 -0.01727295 C4.40453859 -0.02672599 6.21606157 -0.03325814 8.02758789 -0.03710938 C10.80189891 -0.0468242 13.57547203 -0.07784791 16.34960938 -0.109375 C18.10806851 -0.11590409 19.86653295 -0.12115493 21.625 -0.125 C22.45631943 -0.1373468 23.28763885 -0.1496936 24.14414978 -0.16241455 C29.9241392 -0.14000697 29.9241392 -0.14000697 32.1375885 1.53009033 C33.37890625 3.203125 33.37890625 3.203125 33.12890625 6.328125 C32.37890625 9.203125 32.37890625 9.203125 31.37890625 10.203125 C28.34912821 10.29183773 25.34223603 10.3183185 22.3125 10.30078125 C21.40387711 10.2993663 20.49525421 10.29795135 19.55909729 10.29649353 C16.64483404 10.29087693 13.73064644 10.27832165 10.81640625 10.265625 C8.84570423 10.26061214 6.87500101 10.25604886 4.90429688 10.25195312 C0.06247066 10.24090211 -4.7792987 10.22362638 -9.62109375 10.203125 C-11.65234375 6.5390625 -11.65234375 6.5390625 -11.37109375 3.515625 C-11.12359375 2.7525 -10.87609375 1.989375 -10.62109375 1.203125 C-7.31662482 -0.44910947 -3.63355481 0.01853037 0 0 Z " fill="#0AA9CC" transform="translate(52.62109375,118.796875)"/>
<path d="M0 0 C0.87931183 -0.00570007 1.75862366 -0.01140015 2.6645813 -0.01727295 C4.52914216 -0.02673804 6.39371986 -0.0332629 8.25830078 -0.03710938 C11.11390345 -0.04681076 13.96878534 -0.0778178 16.82421875 -0.109375 C18.63280821 -0.11590514 20.44140284 -0.12115557 22.25 -0.125 C23.53449539 -0.1435202 23.53449539 -0.1435202 24.84494019 -0.16241455 C25.64231598 -0.15941345 26.43969177 -0.15641235 27.26123047 -0.15332031 C28.31260696 -0.15878876 28.31260696 -0.15878876 29.38522339 -0.16436768 C31.86250994 0.32179592 32.7717726 1.18933982 34.2578125 3.203125 C33.82302989 8.63790761 33.82302989 8.63790761 32.2578125 10.203125 C22.90211038 11.69078081 13.36807444 11.16805148 3.9453125 10.828125 C2.72215332 10.78510254 1.49899414 10.74208008 0.23876953 10.69775391 C-8.61257535 10.33273715 -8.61257535 10.33273715 -9.7421875 9.203125 C-9.875 7.390625 -9.875 7.390625 -9.8671875 5.203125 C-9.86976562 4.48125 -9.87234375 3.759375 -9.875 3.015625 C-9.52983624 -1.69484508 -3.58720189 0.01771914 0 0 Z " fill="#12ABCA" transform="translate(51.7421875,130.796875)"/>
<path d="M0 0 C1.084021 0.00523682 2.16804199 0.01047363 3.28491211 0.01586914 C5.03964844 0.02070313 5.03964844 0.02070313 6.82983398 0.02563477 C8.67738281 0.03820312 8.67738281 0.03820312 10.56225586 0.05102539 C12.41560547 0.05779297 12.41560547 0.05779297 14.30639648 0.06469727 C17.37089703 0.07652931 20.43530307 0.09301366 23.49975586 0.11352539 C24.13256836 1.95336914 24.13256836 1.95336914 24.49975586 4.11352539 C20.7136726 8.67909639 17.03584743 11.83686086 11.06225586 12.48852539 C5.280792 11.87995025 1.18166499 9.61363655 -2.50024414 5.11352539 C-3.31274414 2.92602539 -3.31274414 2.92602539 -3.50024414 1.11352539 C-2.50024414 0.11352539 -2.50024414 0.11352539 0 0 Z " fill="#18ACC7" transform="translate(52.500244140625,142.886474609375)"/>
<path d="M0 0 C1.2065625 0.0309375 1.2065625 0.0309375 2.4375 0.0625 C3.926144 5.8247231 2.41261847 10.15716885 0.8125 15.75 C0.56371094 16.71228516 0.31492187 17.67457031 0.05859375 18.66601562 C-0.20050781 19.58447266 -0.45960937 20.50292969 -0.7265625 21.44921875 C-0.95811035 22.28670654 -1.1896582 23.12419434 -1.42822266 23.98706055 C-2.5625 26.0625 -2.5625 26.0625 -5.05224609 27.41333008 C-7.5625 28.0625 -7.5625 28.0625 -9.5625 27.0625 C-9.40365211 21.05516149 -7.47480362 0.18231228 0 0 Z " fill="#25AFC7" transform="translate(69.5625,38.9375)"/>
<path d="M0 0 C2.9167163 1.13162217 4.37877527 2.82311552 6.45703125 5.14453125 C7.53404297 6.31435547 7.53404297 6.31435547 8.6328125 7.5078125 C10.14453125 9.83203125 10.14453125 9.83203125 10.078125 11.890625 C8.28776768 15.6136693 5.40083218 18.34353181 2.14453125 20.83203125 C-0.79296875 21.26953125 -0.79296875 21.26953125 -2.85546875 20.83203125 C-3.51546875 19.51203125 -4.17546875 18.19203125 -4.85546875 16.83203125 C-3.20546875 15.18203125 -1.55546875 13.53203125 0.14453125 11.83203125 C-1.0072023 9.36403078 -1.9033044 7.7841956 -3.85546875 5.83203125 C-3.98046875 3.20703125 -3.98046875 3.20703125 -3.85546875 0.83203125 C-1.85546875 -0.16796875 -1.85546875 -0.16796875 0 0 Z " fill="#20AFC7" transform="translate(76.85546875,44.16796875)"/>
</svg>
