<?xml version="1.0" encoding="UTF-8"?>
<svg xmlns="http://www.w3.org/2000/svg" xmlns:xlink="http://www.w3.org/1999/xlink" width="0px" height="px" viewBox="0 0 224 256" version="1.1">
<g id="surface1">
<path style=" stroke:none;fill-rule:nonzero;fill:rgb(0%,65.882355%,80.392158%);fill-opacity:1;" d="M 0 48 C 0 39.148438 7.148438 32 16 32 L 208 32 C 216.851562 32 224 39.148438 224 48 C 224 56.851562 216.851562 64 208 64 L 16 64 C 7.148438 64 0 56.851562 0 48 Z M 0 128 C 0 119.148438 7.148438 112 16 112 L 208 112 C 216.851562 112 224 119.148438 224 128 C 224 136.851562 216.851562 144 208 144 L 16 144 C 7.148438 144 0 136.851562 0 128 Z M 224 208 C 224 216.851562 216.851562 224 208 224 L 16 224 C 7.148438 224 0 216.851562 0 208 C 0 199.148438 7.148438 192 16 192 L 208 192 C 216.851562 192 224 199.148438 224 208 Z M 224 208 "/>
</g>
</svg>
